<svg width="48" height="48" viewBox="0 0 48 48" fill="none" xmlns="http://www.w3.org/2000/svg">
<path d="M0 24C0 10.7452 10.7452 0 24 0C37.2548 0 48 10.7452 48 24C48 37.2548 37.2548 48 24 48C10.7452 48 0 37.2548 0 24Z" fill="#E6E6E6"/>
<path d="M29.7542 25.9999C30.9962 25.9999 32.003 27.0068 32.003 28.2488V28.8242C32.003 29.7185 31.6835 30.5833 31.1019 31.2627C29.5326 33.0962 27.1454 34.0011 24 34.0011C20.8541 34.0011 18.4681 33.0959 16.9018 31.2617C16.3221 30.5828 16.0035 29.7193 16.0035 28.8265V28.2488C16.0035 27.0068 17.0104 25.9999 18.2524 25.9999H29.7542ZM29.7542 27.4999H18.2524C17.8388 27.4999 17.5035 27.8352 17.5035 28.2488V28.8265C17.5035 29.3622 17.6946 29.8802 18.0425 30.2876C19.2958 31.7553 21.2617 32.5011 24 32.5011C26.7383 32.5011 28.7059 31.7553 29.9624 30.2873C30.3113 29.8797 30.503 29.3608 30.503 28.8242V28.2488C30.503 27.8352 30.1678 27.4999 29.7542 27.4999ZM24 14.0046C26.7614 14.0046 29 16.2432 29 19.0046C29 21.7661 26.7614 24.0046 24 24.0046C21.2386 24.0046 19 21.7661 19 19.0046C19 16.2432 21.2386 14.0046 24 14.0046ZM24 15.5046C22.067 15.5046 20.5 17.0716 20.5 19.0046C20.5 20.9376 22.067 22.5046 24 22.5046C25.933 22.5046 27.5 20.9376 27.5 19.0046C27.5 17.0716 25.933 15.5046 24 15.5046Z" fill="#616161"/>
</svg>
