<svg width="22" height="22" viewBox="0 0 22 22" fill="none" xmlns="http://www.w3.org/2000/svg">
<path d="M17.9171 16.4579C18.1108 16.6516 18.2196 16.9144 18.2196 17.1884C18.2196 17.4623 18.1108 17.7251 17.9171 17.9188C17.7233 18.1126 17.4606 18.2214 17.1866 18.2214C16.9126 18.2214 16.6499 18.1126 16.4561 17.9188L11 12.4609L5.54207 17.9171C5.34834 18.1108 5.08558 18.2197 4.8116 18.2197C4.53762 18.2197 4.27487 18.1108 4.08113 17.9171C3.8874 17.7234 3.77856 17.4606 3.77856 17.1866C3.77856 16.9127 3.8874 16.6499 4.08113 16.4562L9.53903 11L4.08285 5.54211C3.88912 5.34837 3.78028 5.08562 3.78028 4.81164C3.78028 4.53766 3.88912 4.2749 4.08285 4.08117C4.27659 3.88744 4.53934 3.7786 4.81332 3.7786C5.0873 3.7786 5.35006 3.88744 5.54379 4.08117L11 9.53906L16.4579 4.08031C16.6516 3.88658 16.9143 3.77774 17.1883 3.77774C17.4623 3.77774 17.7251 3.88658 17.9188 4.08031C18.1125 4.27404 18.2214 4.5368 18.2214 4.81078C18.2214 5.08476 18.1125 5.34752 17.9188 5.54125L12.4609 11L17.9171 16.4579Z" fill="black"/>
</svg>
