<svg width="40" height="40" viewBox="0 0 40 40" fill="none" xmlns="http://www.w3.org/2000/svg">
<path d="M24.4761 19.1875L10.6399 16.75V34.7612C10.6401 34.9569 10.6788 35.1506 10.7538 35.3314C10.8288 35.5121 10.9387 35.6762 11.0772 35.8145C11.2157 35.9527 11.38 36.0623 11.5608 36.1371C11.7417 36.2118 11.9355 36.2502 12.1311 36.25H36.0061C36.202 36.2505 36.3961 36.2124 36.5772 36.1378C36.7583 36.0632 36.923 35.9536 37.0617 35.8154C37.2005 35.6771 37.3106 35.5128 37.3858 35.3319C37.4609 35.1511 37.4997 34.9571 37.4999 34.7612V28.125L24.4761 19.1875Z" fill="#185C37"/>
<path d="M24.4761 3.75H12.1311C11.9355 3.74984 11.7417 3.78821 11.5608 3.86294C11.38 3.93767 11.2157 4.04728 11.0772 4.18553C10.9387 4.32377 10.8288 4.48793 10.7538 4.66865C10.6788 4.84936 10.6401 5.04308 10.6399 5.23875V11.875L24.4761 20L31.8024 22.4375L37.4999 20V11.875L24.4761 3.75Z" fill="#21A366"/>
<path d="M10.6399 11.875H24.4761V20H10.6399V11.875Z" fill="#107C41"/>
<path opacity="0.1" d="M20.5424 10.25H10.6399V30.5625H20.5424C20.937 30.5605 21.3149 30.4032 21.5943 30.1245C21.8736 29.8458 22.0319 29.4683 22.0349 29.0738V11.7387C22.0319 11.3442 21.8736 10.9667 21.5943 10.688C21.3149 10.4093 20.937 10.252 20.5424 10.25Z" fill="black"/>
<path opacity="0.2" d="M19.7286 11.0625H10.6399V31.375H19.7286C20.1232 31.373 20.5011 31.2157 20.7805 30.937C21.0599 30.6583 21.2182 30.2808 21.2211 29.8862V12.5512C21.2182 12.1567 21.0599 11.7792 20.7805 11.5005C20.5011 11.2218 20.1232 11.0645 19.7286 11.0625Z" fill="black"/>
<path opacity="0.2" d="M19.7286 11.0625H10.6399V29.75H19.7286C20.1232 29.748 20.5011 29.5907 20.7805 29.312C21.0599 29.0333 21.2182 28.6558 21.2211 28.2612V12.5512C21.2182 12.1567 21.0599 11.7792 20.7805 11.5005C20.5011 11.2218 20.1232 11.0645 19.7286 11.0625Z" fill="black"/>
<path opacity="0.2" d="M18.9149 11.0625H10.6399V29.75H18.9149C19.3095 29.748 19.6874 29.5907 19.9668 29.312C20.2461 29.0333 20.4044 28.6558 20.4074 28.2612V12.5512C20.4044 12.1567 20.2461 11.7792 19.9668 11.5005C19.6874 11.2218 19.3095 11.0645 18.9149 11.0625Z" fill="black"/>
<path d="M3.9925 11.0625H18.915C19.3103 11.0622 19.6895 11.2188 19.9694 11.498C20.2493 11.7771 20.4068 12.156 20.4075 12.5513V27.4488C20.4068 27.844 20.2493 28.2229 19.9694 28.5021C19.6895 28.7812 19.3103 28.9378 18.915 28.9375H3.9925C3.79673 28.9378 3.60281 28.8996 3.42182 28.8249C3.24084 28.7503 3.07634 28.6407 2.93774 28.5024C2.79913 28.3642 2.68913 28.1999 2.61402 28.0191C2.53891 27.8384 2.50016 27.6445 2.5 27.4488V12.5513C2.50016 12.3555 2.53891 12.1617 2.61402 11.9809C2.68913 11.8001 2.79913 11.6358 2.93774 11.4976C3.07634 11.3593 3.24084 11.2497 3.42182 11.1751C3.60281 11.1004 3.79673 11.0622 3.9925 11.0625Z" fill="url(#paint0_linear_195_790)"/>
<path d="M7.125 24.8412L10.2638 19.9862L7.38875 15.1587H9.6975L11.2662 18.25C11.4112 18.5425 11.5163 18.76 11.5638 18.905H11.585C11.6875 18.67 11.7962 18.4437 11.91 18.2225L13.5875 15.1637H15.7125L12.7638 19.9637L15.7875 24.845H13.5263L11.7138 21.4563C11.6296 21.3106 11.5581 21.1579 11.5 21H11.47C11.4171 21.1539 11.3467 21.3011 11.26 21.4387L9.39375 24.8412H7.125Z" fill="white"/>
<path d="M36.0076 3.75H24.4763V11.875H37.5001V5.23875C37.4999 5.04298 37.4612 4.84915 37.3861 4.66836C37.3109 4.48757 37.2009 4.32335 37.0623 4.18509C36.9237 4.04683 36.7592 3.93724 36.5782 3.86258C36.3973 3.78793 36.2033 3.74967 36.0076 3.75Z" fill="#33C481"/>
<path d="M24.4763 20H37.5001V28.125H24.4763V20Z" fill="#107C41"/>
<defs>
<linearGradient id="paint0_linear_195_790" x1="5.6175" y1="9.8925" x2="17.29" y2="30.1075" gradientUnits="userSpaceOnUse">
<stop stop-color="#18884F"/>
<stop offset="0.5" stop-color="#117E43"/>
<stop offset="1" stop-color="#0B6631"/>
</linearGradient>
</defs>
</svg>
