<svg width="128" height="34" viewBox="0 0 128 34" fill="none" xmlns="http://www.w3.org/2000/svg">
<g clip-path="url(#clip0_50_8710)">
<path d="M68 0H34V11.3333H45.3333V34H56.6667C56.728 26.3825 56.6667 18.9508 56.6667 11.3333C60.3825 11.3946 64.2842 11.3333 68 11.3333V0Z" fill="#608DB4"/>
<path d="M69.5654 33.8152H80.8814V22.5435H92.1973V0H69.5654V33.8152Z" fill="#98B3B7"/>
<path d="M94.0522 33.8152H105.368V17C107.223 18.8478 109.078 20.6957 110.933 22.5435C112.85 20.6347 114.768 18.724 116.684 16.8152V33.8152H128V0H117.612L110.933 6.65217C108.769 4.43478 106.606 2.21739 104.441 0H94.0522V33.8152Z" fill="#98B3B7"/>
<path d="M22 0H0V23H22V0Z" fill="#608DB4"/>
<path d="M14.8159 30.3152V14.9565H30.2623V30.3152H14.8159Z" fill="white" stroke="#98B3B7" stroke-width="7"/>
</g>
<defs>
<clipPath id="clip0_50_8710">
<rect width="128" height="34" fill="white"/>
</clipPath>
</defs>
</svg>
