<svg width="46" height="46" viewBox="0 0 46 46" fill="none" xmlns="http://www.w3.org/2000/svg">
<path d="M34.6439 2.9785L42.6421 11.316V43.0215H12.7637V43.125H42.7442V11.4209L34.6439 2.9785Z" fill="#909090"/>
<path d="M34.5447 2.875H12.6616V43.0215H42.6421V11.3174L34.5447 2.875Z" fill="#F4F4F4"/>
<path d="M12.4415 5.03125H3.25586V14.8451H32.1496V5.03125H12.4415Z" fill="#7A7B7C"/>
<path d="M32.3036 14.6783H3.44287V4.85732H32.3036V14.6783Z" fill="#DD2025"/>
<path d="M13.0124 6.51763H11.1335V13.4176H12.6113V11.0903L12.9376 11.109C13.2547 11.1036 13.5688 11.0468 13.8677 10.9408C14.1297 10.8507 14.3708 10.7084 14.5764 10.5225C14.7855 10.3454 14.9504 10.122 15.0579 9.86988C15.2021 9.45085 15.2536 9.00551 15.2089 8.56463C15.1999 8.24969 15.1447 7.93777 15.045 7.63888C14.9542 7.42312 14.8196 7.22862 14.6495 7.06775C14.4795 6.90688 14.2779 6.78318 14.0574 6.70451C13.8668 6.6355 13.6699 6.58543 13.4695 6.55501C13.3177 6.53159 13.1645 6.5191 13.0109 6.51763M12.7392 9.81526H12.6113V7.68776H12.8887C13.0112 7.67893 13.134 7.69772 13.2482 7.74276C13.3625 7.78779 13.4651 7.85792 13.5485 7.94794C13.7215 8.1794 13.8139 8.46114 13.8116 8.75007C13.8116 9.10369 13.8116 9.42426 13.4925 9.64994C13.2626 9.77639 13.0009 9.83476 12.7392 9.81526ZM18.0163 6.49894C17.8567 6.49894 17.7015 6.51044 17.5922 6.51476L17.2501 6.52338H16.1289V13.4234H17.4485C17.9528 13.4372 18.4549 13.3517 18.9262 13.1718C19.3056 13.0213 19.6415 12.7788 19.9037 12.466C20.1587 12.1504 20.3417 11.783 20.4399 11.3893C20.5529 10.9435 20.6079 10.485 20.6038 10.0251C20.6317 9.48198 20.5896 8.9375 20.4787 8.40507C20.3735 8.01315 20.1764 7.65195 19.9037 7.35138C19.6898 7.10868 19.428 6.9129 19.1347 6.77638C18.8828 6.65982 18.6178 6.57392 18.3455 6.52051C18.2372 6.50261 18.1275 6.49444 18.0177 6.49607M17.7561 12.1555H17.6124V7.75101H17.631C17.9274 7.71691 18.2272 7.77038 18.4935 7.90482C18.6886 8.06054 18.8475 8.25672 18.9593 8.47982C19.08 8.71461 19.1496 8.97231 19.1634 9.23594C19.1764 9.55219 19.1634 9.81094 19.1634 10.0251C19.1693 10.2719 19.1534 10.5186 19.116 10.7626C19.0717 11.013 18.9898 11.2553 18.873 11.4813C18.7409 11.6914 18.5624 11.8684 18.3512 11.9988C18.1739 12.1135 17.9639 12.167 17.7532 12.1512M25.0557 6.52338H21.5626V13.4234H23.0404V10.6864H24.9091V9.40413H23.0404V7.80563H25.0529V6.52338" fill="#464648"/>
<path d="M31.3102 29.1166C31.3102 29.1166 35.893 28.2857 35.893 29.8511C35.893 31.4166 33.0539 30.7797 31.3102 29.1166ZM27.922 29.2359C27.1939 29.3968 26.4844 29.6323 25.8046 29.9388L26.3796 28.6451C26.9546 27.3513 27.5512 25.5875 27.5512 25.5875C28.2373 26.7423 29.0356 27.8266 29.9345 28.8247C29.2566 28.9258 28.5848 29.064 27.922 29.2388V29.2359ZM26.1079 19.8921C26.1079 18.5279 26.5492 18.1556 26.8928 18.1556C27.2364 18.1556 27.623 18.3209 27.636 19.5054C27.5241 20.6965 27.2747 21.8706 26.8928 23.0043C26.3697 22.0525 26.099 20.9825 26.1065 19.8964L26.1079 19.8921ZM19.425 35.0089C18.0191 34.1679 22.3733 31.579 23.1625 31.4956C23.1582 31.4971 20.897 35.8886 19.425 35.0089ZM37.2313 30.0366C37.2169 29.8928 37.0875 28.3015 34.2557 28.3691C33.0753 28.35 31.8955 28.4332 30.7295 28.6178C29.6 27.4798 28.6273 26.1963 27.8372 24.8012C28.335 23.3629 28.6362 21.8639 28.7328 20.3449C28.6911 18.6199 28.2785 17.6309 26.956 17.6453C25.6335 17.6597 25.4409 18.8169 25.6149 20.539C25.7852 21.6963 26.1066 22.8262 26.5708 23.8999C26.5708 23.8999 25.9599 25.8017 25.152 27.6934C24.3441 29.5852 23.7921 30.5771 23.7921 30.5771C22.3873 31.0344 21.0648 31.7138 19.8749 32.5896C18.6904 33.6921 18.2089 34.5388 18.8327 35.3855C19.3704 36.1157 21.252 36.2811 22.9339 34.0774C23.8276 32.9392 24.644 31.7424 25.3777 30.4951C25.3777 30.4951 27.9422 29.7922 28.74 29.5996C29.5378 29.4069 30.5024 29.2546 30.5024 29.2546C30.5024 29.2546 32.844 31.6106 35.1024 31.5272C37.3607 31.4439 37.2514 30.1774 37.237 30.0394" fill="#DD2025"/>
<path d="M34.4338 2.98569V11.4281H42.5313L34.4338 2.98569Z" fill="#909090"/>
<path d="M34.5447 2.875V11.3174H42.6421L34.5447 2.875Z" fill="#F4F4F4"/>
<path d="M12.9015 6.40694H11.0227V13.3069H12.5062V10.9811L12.834 10.9998C13.151 10.9943 13.4651 10.9375 13.764 10.8316C14.0261 10.7414 14.2671 10.5991 14.4727 10.4133C14.6803 10.2357 14.8437 10.0123 14.95 9.76063C15.0941 9.3416 15.1456 8.89626 15.1009 8.45538C15.0919 8.14044 15.0367 7.82852 14.937 7.52963C14.8463 7.31387 14.7116 7.11937 14.5416 6.9585C14.3716 6.79764 14.1699 6.67393 13.9495 6.59526C13.758 6.52558 13.5601 6.47502 13.3586 6.44432C13.2069 6.4209 13.0536 6.40841 12.9001 6.40694M12.6284 9.70457H12.5005V7.57707H12.7793C12.9018 7.56824 13.0246 7.58704 13.1388 7.63207C13.2531 7.67711 13.3557 7.74723 13.4391 7.83726C13.6121 8.06872 13.7045 8.35045 13.7022 8.63938C13.7022 8.99301 13.7022 9.31357 13.3831 9.53926C13.1532 9.6657 12.8915 9.72264 12.6298 9.70313M17.9055 6.38826C17.7459 6.38826 17.5906 6.39976 17.4814 6.40407L17.1436 6.41269H16.0223V13.3127H17.342C17.8463 13.3265 18.3484 13.241 18.8197 13.0611C19.1991 12.9107 19.535 12.6681 19.7972 12.3553C20.0522 12.0397 20.2352 11.6723 20.3334 11.2786C20.4463 10.8328 20.5014 10.3743 20.4973 9.91444C20.5252 9.37129 20.4831 8.82682 20.3722 8.29438C20.267 7.90247 20.0698 7.54126 19.7972 7.24069C19.5833 6.99799 19.3214 6.80221 19.0281 6.66569C18.7763 6.54914 18.5113 6.46323 18.239 6.40982C18.1307 6.39193 18.021 6.38375 17.9112 6.38538M17.6496 12.0448H17.5058V7.64032H17.5245C17.8209 7.60622 18.1207 7.65969 18.387 7.79413C18.582 7.94985 18.7409 8.14603 18.8528 8.36913C18.9735 8.60393 19.043 8.86163 19.0569 9.12526C19.0698 9.44151 19.0569 9.70026 19.0569 9.91444C19.0627 10.1612 19.0469 10.4079 19.0095 10.6519C18.9651 10.9023 18.8832 11.1447 18.7665 11.3706C18.6344 11.5807 18.4559 11.7578 18.2447 11.8881C18.0674 12.0028 17.8573 12.0564 17.6467 12.0405M24.9449 6.41269H21.4518V13.3127H22.9295V10.5757H24.7983V9.29344H22.9295V7.69494H24.942V6.41269" fill="white"/>
</svg>
